# xmcd CD database file
#
# Track frame offsets:
#	150
#	19945
#	35277
#	55060
#	65132
#	78215
#	113055
#	125858
#	142763
#	154083
#
# Disc length: 2195 seconds
#
# Revision: 0
# Processed by: cddbd v1.5.2PL0 Copyright (c) Steve Scherf et al.
# Submitted via: CDex 1.51
#
DISCID=8008910a
DTITLE=Jimmy Smith - Any Number Can Win
DYEAR=1900
DGENRE=Jazz
TTITLE0=You Came A Long Way Frm St. Louis
TTITLE1=The Ape Woman
TTITLE2=G'Won Train
TTITLE3=Theme From Any Number Can Win
TTITLE4=What'd I Say
TTITLE5=The Surmon
TTITLE6=Tubs
TTITLE7=Blues For C.A.
TTITLE8=Georgia On My Mind
TTITLE9=Ruby
EXTD=
EXTT0=
EXTT1=
EXTT2=
EXTT3=
EXTT4=
EXTT5=
EXTT6=
EXTT7=
EXTT8=
EXTT9=
PLAYORDER=
